<svg width="32" height="32" viewBox="0 0 32 32" fill="none" xmlns="http://www.w3.org/2000/svg">
<path d="M25.4196 0.96875H6.5805C2.952 0.96875 0 3.92075 0 7.54925C0 11.1953 2.98269 14.1298 6.54125 14.1298H9.49687V8.97388C9.49687 6.66488 11.3753 4.78638 13.6842 4.78638H13.6934C15.9974 4.79131 17.8719 6.66981 17.8719 8.97388V14.1298H25.4196C29.0481 14.1298 32 11.1777 32 7.54925C32 3.92075 29.0481 0.96875 25.4196 0.96875ZM27.2817 6.63163L23.5317 10.3816C23.1656 10.7478 22.572 10.7478 22.2059 10.3816L20.3309 8.50663C19.9648 8.1405 19.9648 7.54694 20.3309 7.18081C20.6969 6.81469 21.2906 6.81469 21.6567 7.18081L22.8688 8.39287L25.9559 5.30581C26.322 4.93969 26.9156 4.93969 27.2817 5.30581C27.6478 5.67194 27.6478 6.26556 27.2817 6.63163Z" fill="white"/>
<path d="M22.0317 16.7681L15.9966 16.1408V8.97376C15.9966 7.69851 14.9643 6.66401 13.689 6.66126C12.4099 6.65851 11.3716 7.69463 11.3716 8.97376V20.9687H11.3506L9.06787 19.0624C8.10506 18.2584 6.66831 18.4092 5.89331 19.3955C5.15013 20.3414 5.29363 21.7067 6.21719 22.4774L10.8505 26.3437H24.4965V19.5589C24.4965 18.1401 23.4397 16.9434 22.0317 16.7681ZM11.3715 30.0937C11.3715 30.6114 11.7912 31.0312 12.309 31.0312H23.559C24.0767 31.0312 24.4965 30.6114 24.4965 30.0937V28.2187H11.3715V30.0937Z" fill="white"/>
</svg>
