<svg width="28" height="28" viewBox="0 0 28 28" fill="none" xmlns="http://www.w3.org/2000/svg">
<path d="M9.21935 18.76C8.42374 19.3822 7.78031 20.1774 7.3379 21.0853C6.89548 21.9932 6.66571 22.99 6.66602 24V26H2.66602C1.55935 26 0.666016 25.1067 0.666016 24V22.6667C0.666016 20.0867 2.75268 18 5.33268 18H6.66602C7.61268 18 8.48602 18.28 9.21935 18.76Z" fill="white"/>
<path d="M22 18C23.6569 18 25 16.6569 25 15C25 13.3431 23.6569 12 22 12C20.3431 12 19 13.3431 19 15C19 16.6569 20.3431 18 22 18Z" fill="white"/>
<path d="M6 18C7.65685 18 9 16.6569 9 15C9 13.3431 7.65685 12 6 12C4.34315 12 3 13.3431 3 15C3 16.6569 4.34315 18 6 18Z" fill="white"/>
<path d="M27.3326 22.6667V24C27.3326 25.1067 26.4393 26 25.3326 26H21.3326V24C21.3326 21.8733 20.3326 19.98 18.7793 18.76C19.5126 18.28 20.386 18 21.3326 18H22.666C25.246 18 27.3326 20.0867 27.3326 22.6667Z" fill="white"/>
<path d="M13.9987 18.6666C16.0237 18.6666 17.6654 17.025 17.6654 14.9999C17.6654 12.9749 16.0237 11.3333 13.9987 11.3333C11.9737 11.3333 10.332 12.9749 10.332 14.9999C10.332 17.025 11.9737 18.6666 13.9987 18.6666Z" fill="white"/>
<path d="M14.6655 18.6666H13.3322C10.3915 18.6666 7.99885 21.0593 7.99885 24V26C7.99885 27.1026 8.89619 28 9.99885 28H17.9989C19.1015 28 19.9989 27.1026 19.9989 26V24C19.9989 21.0593 17.6062 18.6666 14.6655 18.6666ZM23.6655 9.12263L22.0569 9.69463C21.9513 9.73215 21.8382 9.74339 21.7274 9.72738C21.6165 9.71137 21.5112 9.66859 21.4206 9.60274C21.33 9.53689 21.2568 9.44995 21.2074 9.34945C21.158 9.24895 21.1337 9.13792 21.1369 9.02596L21.1835 7.31929L20.1422 5.96596C20.074 5.87715 20.0284 5.77307 20.0094 5.66271C19.9904 5.55234 19.9985 5.43901 20.0331 5.33249C20.0677 5.22597 20.1277 5.12948 20.2079 5.05133C20.2881 4.97319 20.3861 4.91574 20.4935 4.88396L22.1315 4.40129L23.0969 2.99263C23.1602 2.90023 23.245 2.82465 23.3441 2.77242C23.4432 2.7202 23.5535 2.69291 23.6655 2.69291C23.7775 2.69291 23.8878 2.7202 23.9869 2.77242C24.086 2.82465 24.1709 2.90023 24.2342 2.99263L25.1995 4.40129L26.8375 4.88396C27.3022 5.02063 27.4842 5.58196 27.1889 5.96596L26.1475 7.31929L26.1942 9.02596C26.1971 9.13787 26.1728 9.24882 26.1233 9.34923C26.0738 9.44964 26.0007 9.53651 25.9101 9.60232C25.8195 9.66814 25.7143 9.71094 25.6035 9.72702C25.4928 9.7431 25.3797 9.73198 25.2742 9.69463L23.6655 9.12263ZM4.33219 9.12263L2.72352 9.69463C2.61799 9.73215 2.5049 9.74339 2.39405 9.72738C2.28319 9.71137 2.17791 9.66859 2.08731 9.60274C1.99671 9.53689 1.92351 9.44995 1.87407 9.34945C1.82462 9.24895 1.80041 9.13792 1.80352 9.02596L1.85019 7.31929L0.808853 5.96596C0.740624 5.87715 0.695037 5.77307 0.676028 5.66271C0.657019 5.55234 0.665159 5.43901 0.699746 5.33249C0.734332 5.22597 0.794325 5.12948 0.874545 5.05133C0.954765 4.97319 1.0528 4.91574 1.16019 4.88396L2.79819 4.40129L3.76352 2.99263C3.82683 2.90023 3.91169 2.82465 4.01078 2.77242C4.10986 2.7202 4.22018 2.69291 4.33219 2.69291C4.44419 2.69291 4.55451 2.7202 4.65359 2.77242C4.75268 2.82465 4.83755 2.90023 4.90085 2.99263L5.86619 4.40129L7.50419 4.88396C7.96885 5.02063 8.15085 5.58196 7.85552 5.96596L6.81419 7.31929L6.86085 9.02596C6.86381 9.13787 6.83949 9.24882 6.79 9.34923C6.7405 9.44964 6.66732 9.53651 6.57676 9.60232C6.48621 9.66814 6.381 9.71094 6.27021 9.72702C6.15942 9.7431 6.04639 9.73198 5.94085 9.69463L4.33219 9.12263ZM13.9989 7.62263L12.0915 8.30063C11.9664 8.34508 11.8324 8.35838 11.701 8.33939C11.5696 8.3204 11.4448 8.26968 11.3374 8.19163C11.23 8.11357 11.1432 8.01053 11.0846 7.89141C11.0259 7.77229 10.9972 7.64068 11.0009 7.50796L11.0562 5.48463L9.82152 3.87996C9.74065 3.77467 9.68662 3.65127 9.6641 3.52043C9.64158 3.38959 9.65125 3.25523 9.69227 3.12896C9.73328 3.00269 9.80442 2.8883 9.89953 2.79567C9.99465 2.70304 10.1109 2.63496 10.2382 2.59729L12.1802 2.02463L13.3249 0.354626C13.3999 0.24504 13.5005 0.155397 13.618 0.0934567C13.7355 0.0315166 13.8664 -0.000854492 13.9992 -0.000854492C14.132 -0.000854492 14.2628 0.0315166 14.3803 0.0934567C14.4978 0.155397 14.5985 0.24504 14.6735 0.354626L15.8182 2.02463L17.7602 2.59729C17.8875 2.63496 18.0037 2.70304 18.0988 2.79567C18.194 2.8883 18.2651 3.00269 18.3061 3.12896C18.3471 3.25523 18.3568 3.38959 18.3343 3.52043C18.3118 3.65127 18.2577 3.77467 18.1769 3.87996L16.9422 5.48463L16.9975 7.50796C17.0012 7.64068 16.9724 7.77229 16.9138 7.89141C16.8552 8.01053 16.7684 8.11357 16.661 8.19163C16.5536 8.26968 16.4288 8.3204 16.2974 8.33939C16.166 8.35838 16.032 8.34508 15.9069 8.30063L13.9989 7.62263Z" fill="white"/>
</svg>
