<svg width="30" height="32" viewBox="0 0 30 32" fill="none" xmlns="http://www.w3.org/2000/svg">
<path fill-rule="evenodd" clip-rule="evenodd" d="M6.41572 27.6817L3.84022 23.1308L7.74008 20.873C8.64261 20.351 9.55066 19.9413 10.5419 20.2633L10.5421 20.2633C11.8104 20.6746 13.8787 21.5515 15.9916 21.9391C16.499 22.1181 16.8257 22.6249 16.6853 23.147L16.6852 23.1473C16.5469 23.6627 16.107 23.9133 15.505 23.8462C14.343 23.6061 13.2641 23.2534 12.0672 22.9318C11.7997 22.8598 11.5241 23.0187 11.4521 23.2863C11.3802 23.5538 11.5391 23.8294 11.8067 23.9013C13.0308 24.2303 14.134 24.5896 15.3235 24.8338L15.3241 24.8339C15.3309 24.8353 15.3377 24.8366 15.3445 24.8377L15.9988 24.9442L16.0005 24.9444C16.961 25.0973 17.8424 24.962 18.6834 24.472L23.9559 21.4011C25.0327 20.7739 25.824 20.5883 26.386 20.7061C26.9976 20.8342 27.2302 21.3798 27.1894 21.8743C27.1629 22.1954 27.0303 22.5085 26.777 22.6645L17.2091 28.5553L17.2086 28.5557C16.4511 29.0232 15.6207 29.129 14.7611 28.8998L7.82134 27.0399C7.75765 27.0228 7.69123 27.0184 7.62586 27.027C7.56049 27.0356 7.49745 27.057 7.44035 27.09L6.41572 27.6817ZM2.71916 23.1883L2.72411 23.197L5.78915 28.6129L5.79354 28.6206L6.46742 29.8113C6.54134 29.9433 6.49547 30.1118 6.36421 30.1859L6.36358 30.1863L4.886 31.0238C4.75404 31.0976 4.58557 31.0518 4.51147 30.9206L4.51128 30.9202L0.162671 23.2363L0.162483 23.236C0.0880041 23.1046 0.133808 22.9365 0.264632 22.8626L0.265071 22.8624L1.74516 22.0245C1.87636 21.9504 2.04427 21.9978 2.11944 22.1286L2.11982 22.1292L2.71916 23.1883ZM1.54589 22.9483C1.21026 22.9963 0.978545 23.3079 1.02648 23.6435C1.07643 23.9792 1.38802 24.2129 1.72364 24.1629C2.05927 24.115 2.29098 23.8013 2.24305 23.4658C2.1931 23.1301 1.88151 22.8984 1.54589 22.9483ZM13.2113 4.8899L20.6317 9.17401V12.5485L22.7835 11.3063V7.93178L15.3631 3.64767L17.8405 2.21727C17.8882 2.18974 17.9423 2.17524 17.9974 2.17524C18.0525 2.17524 18.1066 2.18974 18.1543 2.21727L25.2609 6.3203C25.3086 6.34783 25.3482 6.38743 25.3757 6.43512C25.4033 6.48281 25.4178 6.53691 25.4178 6.59198V14.7979C25.4178 14.853 25.4033 14.9071 25.3757 14.9548C25.3482 15.0025 25.3086 15.0421 25.2609 15.0696L17.9974 19.2631L10.7339 15.0696C10.6862 15.0421 10.6466 15.0025 10.6191 14.9548C10.5915 14.9071 10.577 14.853 10.577 14.7979V6.59198C10.577 6.47986 10.6368 6.37633 10.7339 6.3203L13.2113 4.8899ZM24.8627 3.38483C24.8281 3.51338 24.744 3.62296 24.6287 3.6895C24.5134 3.75605 24.3765 3.77411 24.2479 3.73972C24.1193 3.70522 24.0097 3.62109 23.9432 3.50583C23.8766 3.39056 23.8585 3.25359 23.8929 3.125L24.3785 1.31305C24.413 1.18449 24.4971 1.0749 24.6124 1.00834C24.7277 0.941784 24.8646 0.923714 24.9932 0.958102C25.1218 0.992629 25.2314 1.07677 25.2979 1.19204C25.3645 1.30731 25.3825 1.44429 25.3482 1.57288L24.8627 3.38483ZM27.4276 9.27384C27.1601 9.20187 27.0013 8.92623 27.0732 8.65868C27.1452 8.39114 27.4208 8.23239 27.6884 8.30436L29.5016 8.79208C29.7691 8.86405 29.9279 9.13969 29.8559 9.40723C29.7839 9.67478 29.5083 9.83352 29.2408 9.76155L27.4276 9.27384ZM27.3639 5.80014C27.2486 5.86663 27.1116 5.88462 26.983 5.85016C26.8544 5.8157 26.7448 5.73161 26.6782 5.61636C26.6117 5.50105 26.5937 5.36406 26.6282 5.23549C26.6626 5.10692 26.7467 4.99729 26.862 4.93068L28.4895 3.99107C28.6048 3.92456 28.7417 3.90655 28.8703 3.941C28.9989 3.97545 29.1085 4.05954 29.1751 4.17479C29.2416 4.29009 29.2596 4.42709 29.2252 4.55566C29.1907 4.68423 29.1067 4.79387 28.9914 4.86047L27.3639 5.80014ZM12.1019 3.125C12.1363 3.25359 12.1182 3.39056 12.0516 3.50583C11.9851 3.62109 11.8755 3.70522 11.7469 3.73972C11.6183 3.77411 11.4814 3.75605 11.3661 3.6895C11.2508 3.62296 11.1667 3.51338 11.1321 3.38483L10.6467 1.57288C10.6123 1.4443 10.6304 1.30732 10.6969 1.19205C10.7634 1.07677 10.873 0.992628 11.0016 0.958102C11.2692 0.886447 11.5447 1.04544 11.6163 1.31305L12.1019 3.125ZM8.30642 8.30436C8.57397 8.23239 8.8496 8.39114 8.92157 8.65868C8.99354 8.92623 8.83473 9.20187 8.56725 9.27384L6.75404 9.76155C6.4865 9.83352 6.21086 9.67478 6.13889 9.40723C6.06692 9.13969 6.22573 8.86405 6.49328 8.79208L8.30642 8.30436ZM9.1329 4.93068C9.37277 5.06922 9.45516 5.37649 9.31662 5.61636C9.25001 5.73161 9.14038 5.8157 9.01181 5.85016C8.88324 5.88462 8.74625 5.86663 8.63094 5.80014L7.00339 4.86047C6.88814 4.79387 6.80405 4.68423 6.76961 4.55566C6.73516 4.42709 6.75316 4.29009 6.81967 4.17479C6.88628 4.05954 6.99591 3.97545 7.12449 3.941C7.25306 3.90655 7.39005 3.92456 7.50535 3.99107L9.1329 4.93068Z" fill="white"/>
</svg>
