<svg width="108" height="110" viewBox="0 0 108 110" fill="none" xmlns="http://www.w3.org/2000/svg">
<path fill-rule="evenodd" clip-rule="evenodd" d="M22.8814 97.3462L13.5453 80.8494L27.6822 72.6645C30.9539 70.7724 34.2456 69.2873 37.8388 70.4544L37.8395 70.4546C42.4372 71.9453 49.9347 75.1244 57.5939 76.5292C59.4335 77.1783 60.6176 79.0154 60.1086 80.908L60.1083 80.909C59.6068 82.7775 58.0124 83.6857 55.8302 83.4425C51.6178 82.5723 47.7068 81.2938 43.3682 80.1277C42.3983 79.867 41.3991 80.4429 41.1385 81.4128C40.8778 82.3826 41.4537 83.3816 42.4236 83.6422C46.8611 84.8348 50.8602 86.1374 55.172 87.0226L55.1745 87.0231C55.199 87.0281 55.2236 87.0326 55.2482 87.0367L57.6203 87.4227L57.6264 87.4236C61.1082 87.9779 64.3032 87.4873 67.3517 85.7109L86.4645 74.5792C90.368 72.3054 93.2366 71.6328 95.2736 72.0597C97.4908 72.5242 98.3338 74.5019 98.1859 76.2944C98.0899 77.4583 97.6093 78.5935 96.6911 79.1589L62.0076 100.513L62.0057 100.514C59.2597 102.209 56.2496 102.593 53.1336 101.762L27.9768 95.0196C27.7459 94.9577 27.5051 94.9418 27.2682 94.973C27.0312 95.0042 26.8027 95.0818 26.5957 95.2013L22.8814 97.3462ZM9.48139 81.0575L9.49936 81.0891L20.6101 100.722L20.626 100.75L23.0689 105.066C23.3368 105.544 23.1705 106.155 22.6947 106.424L22.6924 106.425L17.3362 109.461C16.8579 109.729 16.2471 109.563 15.9785 109.087L15.9778 109.086L0.214125 81.2315L0.213442 81.2306C-0.0565421 80.7541 0.109497 80.1449 0.583733 79.877L0.585325 79.8761L5.95067 76.8387C6.42627 76.5703 7.03492 76.7421 7.30741 77.2163L7.30878 77.2186L9.48139 81.0575ZM5.22828 80.1877C4.01165 80.3617 3.17167 81.4912 3.34544 82.7079C3.52649 83.9245 4.65602 84.7718 5.87265 84.5907C7.08929 84.4169 7.92926 83.2799 7.75549 82.0635C7.57444 80.8469 6.44492 80.0067 5.22828 80.1877ZM47.5155 14.7259L74.4143 30.2558V42.4884L82.2145 37.9853V25.7528L55.3157 10.2229L64.2964 5.03767C64.4693 4.93785 64.6654 4.8853 64.865 4.8853C65.0647 4.8853 65.2608 4.93785 65.4337 5.03767L91.1952 19.9111C91.3681 20.0109 91.5117 20.1545 91.6115 20.3274C91.7113 20.5003 91.7638 20.6964 91.7638 20.896V50.6425C91.7638 50.8421 91.7113 51.0382 91.6115 51.2111C91.5117 51.384 91.3681 51.5275 91.1952 51.6274L64.865 66.8288L38.5348 51.6274C38.362 51.5275 38.2184 51.384 38.1186 51.2111C38.0188 51.0382 37.9662 50.8421 37.9662 50.6425V20.896C37.9662 20.4895 38.183 20.1143 38.5348 19.9111L47.5155 14.7259ZM89.7516 9.27007C89.6264 9.73605 89.3214 10.1333 88.9035 10.3745C88.4857 10.6157 87.9891 10.6812 87.523 10.5565C87.057 10.4315 86.6597 10.1265 86.4184 9.70868C86.1772 9.29085 86.1117 8.79431 86.2363 8.3282L87.9963 1.75987C88.1214 1.29385 88.4264 0.896558 88.8443 0.655293C89.2622 0.414028 89.7588 0.348526 90.2249 0.473179C90.6909 0.598342 91.0881 0.903352 91.3294 1.32121C91.5706 1.73907 91.6362 2.2356 91.5116 2.70174L89.7516 9.27007ZM99.0495 30.6177C98.0797 30.3568 97.504 29.3576 97.7649 28.3878C98.0258 27.4179 99.025 26.8425 99.9948 27.1034L106.568 28.8713C107.538 29.1322 108.113 30.1314 107.852 31.1013C107.591 32.0711 106.592 32.6466 105.622 32.3857L99.0495 30.6177ZM98.8187 18.0256C98.4006 18.2666 97.904 18.3318 97.4379 18.2069C96.9718 18.082 96.5743 17.7772 96.3329 17.3594C96.0919 16.9414 96.0266 16.4448 96.1516 15.9787C96.2765 15.5126 96.5813 15.1152 96.9991 14.8738L102.899 11.4677C103.317 11.2266 103.813 11.1613 104.279 11.2862C104.745 11.4111 105.143 11.7159 105.384 12.1337C105.625 12.5517 105.691 13.0482 105.566 13.5143C105.441 13.9804 105.136 14.3778 104.718 14.6193L98.8187 18.0256ZM43.4937 8.3282C43.6184 8.79431 43.5529 9.29085 43.3116 9.70868C43.0703 10.1265 42.673 10.4315 42.207 10.5565C41.7409 10.6812 41.2444 10.6157 40.8265 10.3745C40.4086 10.1333 40.1036 9.73605 39.9785 9.27007L38.2187 2.70174C38.094 2.23563 38.1595 1.7391 38.4007 1.32123C38.6419 0.903359 39.0392 0.598338 39.5051 0.473179C40.4752 0.21343 41.474 0.789791 41.7337 1.75987L43.4937 8.3282ZM29.7352 27.1034C30.7051 26.8425 31.7043 27.4179 31.9651 28.3878C32.226 29.3576 31.6504 30.3568 30.6807 30.6177L24.1079 32.3857C23.138 32.6466 22.1388 32.0711 21.8779 31.1013C21.617 30.1314 22.1927 29.1322 23.1626 28.8713L29.7352 27.1034ZM32.7312 14.8738C33.6007 15.376 33.8994 16.4898 33.3972 17.3594C33.1557 17.7771 32.7583 18.082 32.2923 18.2069C31.8262 18.3318 31.3296 18.2666 30.9116 18.0256L25.0117 14.6193C24.594 14.3778 24.2891 13.9804 24.1643 13.5143C24.0394 13.0482 24.1047 12.5517 24.3458 12.1337C24.5872 11.7159 24.9846 11.4111 25.4507 11.2862C25.9168 11.1613 26.4134 11.2266 26.8314 11.4677L32.7312 14.8738Z" fill="#F7F9FA"/>
</svg>
