<svg width="271" height="80" viewBox="0 0 271 80" fill="none" xmlns="http://www.w3.org/2000/svg">
<rect x="20.7998" y="20.3145" width="83.2" height="59.4286" rx="8.91429" fill="#00AEAD"/>
<path d="M83.2 17.3429H31.6143C28.0074 17.3429 27.5168 12.1241 31.0607 11.452L82.6463 1.66855C84.4767 1.32141 86.1714 2.7249 86.1714 4.58794V14.3714C86.1714 16.0125 84.8411 17.3429 83.2 17.3429Z" fill="#00AEAD" stroke="#00AEAD" stroke-width="2.97143"/>
<circle cx="93.5997" cy="51.5148" r="4.45714" fill="#F9F9F9"/>
<path d="M146.196 37.432C146.196 38.704 145.896 39.904 145.296 41.032C144.696 42.16 143.736 43.084 142.416 43.804C141.096 44.5 139.404 44.848 137.34 44.848H132.804V55H128.7V29.98H137.34C139.26 29.98 140.88 30.316 142.2 30.988C143.544 31.636 144.54 32.524 145.188 33.652C145.86 34.78 146.196 36.04 146.196 37.432ZM137.34 41.5C138.9 41.5 140.064 41.152 140.832 40.456C141.6 39.736 141.984 38.728 141.984 37.432C141.984 34.696 140.436 33.328 137.34 33.328H132.804V41.5H137.34ZM148.742 44.992C148.742 43 149.15 41.236 149.966 39.7C150.806 38.164 151.934 36.976 153.35 36.136C154.79 35.272 156.374 34.84 158.102 34.84C159.662 34.84 161.018 35.152 162.17 35.776C163.346 36.376 164.282 37.132 164.978 38.044V35.164H169.118V55H164.978V52.048C164.282 52.984 163.334 53.764 162.134 54.388C160.934 55.012 159.566 55.324 158.03 55.324C156.326 55.324 154.766 54.892 153.35 54.028C151.934 53.14 150.806 51.916 149.966 50.356C149.15 48.772 148.742 46.984 148.742 44.992ZM164.978 45.064C164.978 43.696 164.69 42.508 164.114 41.5C163.562 40.492 162.83 39.724 161.918 39.196C161.006 38.668 160.022 38.404 158.966 38.404C157.91 38.404 156.926 38.668 156.014 39.196C155.102 39.7 154.358 40.456 153.782 41.464C153.23 42.448 152.954 43.624 152.954 44.992C152.954 46.36 153.23 47.56 153.782 48.592C154.358 49.624 155.102 50.416 156.014 50.968C156.95 51.496 157.934 51.76 158.966 51.76C160.022 51.76 161.006 51.496 161.918 50.968C162.83 50.44 163.562 49.672 164.114 48.664C164.69 47.632 164.978 46.432 164.978 45.064ZM192.365 35.164L180.197 64.324H175.949L179.981 54.676L172.169 35.164H176.741L182.321 50.284L188.117 35.164H192.365ZM194.094 45.064C194.094 43.024 194.502 41.236 195.318 39.7C196.158 38.14 197.31 36.94 198.774 36.1C200.238 35.26 201.918 34.84 203.814 34.84C206.214 34.84 208.194 35.416 209.754 36.568C211.338 37.696 212.406 39.316 212.958 41.428H208.53C208.17 40.444 207.594 39.676 206.802 39.124C206.01 38.572 205.014 38.296 203.814 38.296C202.134 38.296 200.79 38.896 199.782 40.096C198.798 41.272 198.306 42.928 198.306 45.064C198.306 47.2 198.798 48.868 199.782 50.068C200.79 51.268 202.134 51.868 203.814 51.868C206.19 51.868 207.762 50.824 208.53 48.736H212.958C212.382 50.752 211.302 52.36 209.718 53.56C208.134 54.736 206.166 55.324 203.814 55.324C201.918 55.324 200.238 54.904 198.774 54.064C197.31 53.2 196.158 52 195.318 50.464C194.502 48.904 194.094 47.104 194.094 45.064ZM235.012 35.164V55H230.908V52.66C230.26 53.476 229.408 54.124 228.352 54.604C227.32 55.06 226.216 55.288 225.04 55.288C223.48 55.288 222.076 54.964 220.828 54.316C219.604 53.668 218.632 52.708 217.912 51.436C217.216 50.164 216.868 48.628 216.868 46.828V35.164H220.936V46.216C220.936 47.992 221.38 49.36 222.268 50.32C223.156 51.256 224.368 51.724 225.904 51.724C227.44 51.724 228.652 51.256 229.54 50.32C230.452 49.36 230.908 47.992 230.908 46.216V35.164H235.012ZM247.627 55.324C246.067 55.324 244.663 55.048 243.415 54.496C242.191 53.92 241.219 53.152 240.499 52.192C239.779 51.208 239.395 50.116 239.347 48.916H243.595C243.667 49.756 244.063 50.464 244.783 51.04C245.527 51.592 246.451 51.868 247.555 51.868C248.707 51.868 249.595 51.652 250.219 51.22C250.867 50.764 251.191 50.188 251.191 49.492C251.191 48.748 250.831 48.196 250.111 47.836C249.415 47.476 248.299 47.08 246.763 46.648C245.275 46.24 244.063 45.844 243.127 45.46C242.191 45.076 241.375 44.488 240.679 43.696C240.007 42.904 239.671 41.86 239.671 40.564C239.671 39.508 239.983 38.548 240.607 37.684C241.231 36.796 242.119 36.1 243.271 35.596C244.447 35.092 245.791 34.84 247.303 34.84C249.559 34.84 251.371 35.416 252.739 36.568C254.131 37.696 254.875 39.244 254.971 41.212H250.867C250.795 40.324 250.435 39.616 249.787 39.088C249.139 38.56 248.263 38.296 247.159 38.296C246.079 38.296 245.251 38.5 244.675 38.908C244.099 39.316 243.811 39.856 243.811 40.528C243.811 41.056 244.003 41.5 244.387 41.86C244.771 42.22 245.239 42.508 245.791 42.724C246.343 42.916 247.159 43.168 248.239 43.48C249.679 43.864 250.855 44.26 251.767 44.668C252.703 45.052 253.507 45.628 254.179 46.396C254.851 47.164 255.199 48.184 255.223 49.456C255.223 50.584 254.911 51.592 254.287 52.48C253.663 53.368 252.775 54.064 251.623 54.568C250.495 55.072 249.163 55.324 247.627 55.324ZM264.445 38.512V49.492C264.445 50.236 264.613 50.776 264.949 51.112C265.309 51.424 265.909 51.58 266.749 51.58H269.269V55H266.029C264.181 55 262.765 54.568 261.781 53.704C260.797 52.84 260.305 51.436 260.305 49.492V38.512H257.965V35.164H260.305V30.232H264.445V35.164H269.269V38.512H264.445Z" fill="#00AEAD"/>
</svg>
