<svg width="380" height="400" viewBox="0 0 380 400" fill="none" xmlns="http://www.w3.org/2000/svg">
<g clip-path="url(#clip0_92_104)">
<mask id="mask0_92_104" style="mask-type:luminance" maskUnits="userSpaceOnUse" x="0" y="0" width="380" height="400">
<path d="M380 0H0V400H380V0Z" fill="white"/>
</mask>
<g mask="url(#mask0_92_104)">
<path fill-rule="evenodd" clip-rule="evenodd" d="M200.065 99.2443C193.589 103.147 187.226 105.033 184.24 104.263C176.75 102.333 176.062 74.9351 181.857 64.1339C187.651 53.3328 217.442 48.625 218.943 70.0255C219.464 77.4529 216.346 84.0814 211.738 89.4901L220 128H196L200.065 99.2443Z" fill="#915B3C"/>
<path fill-rule="evenodd" clip-rule="evenodd" d="M213.582 94.3074C216.594 80.9064 225.175 71.7713 223.865 65.7816C222.554 59.7919 216.879 58.332 216.879 58.332C216.879 58.332 213.943 46.4571 197.944 48.2303C181.945 50.0035 172.181 56.6477 176.398 71.2678C180.274 71.2678 184.954 69.8659 191.424 72.2678C194.504 73.4109 195.83 79.3579 195.83 79.3579H198.754C198.754 79.3579 203.011 72.3005 207.149 74.1711C211.287 76.0417 209.03 83.2585 209.03 83.2585L210.471 94.3074H213.582Z" fill="#191847"/>
<path fill-rule="evenodd" clip-rule="evenodd" d="M287 253C295.837 253 303 260.163 303 269V361C303 369.837 295.837 377 287 377H172C163.163 377 156 369.837 156 361V269C156 260.163 163.163 253 172 253H287ZM271 281C273.209 281 275 282.791 275 285V345C275 347.209 273.209 349 271 349H188C185.791 349 184 347.209 184 345V285C184 282.791 185.791 281 188 281H271Z" fill="#C5CFD6"/>
<path fill-rule="evenodd" clip-rule="evenodd" d="M56.841 372C76.5569 347.924 89.8971 330.075 96.8617 318.454C108.787 298.555 118.547 280.848 121.627 274.084C128.972 257.955 104.718 250.403 99.229 257.926C90.9209 269.312 73.178 305.143 46 365.417L56.841 372Z" fill="#B28B67"/>
<path fill-rule="evenodd" clip-rule="evenodd" d="M97.2424 365L133.935 272.637C141.783 255.8 103.884 244.732 98.1167 252.568C85.0227 270.357 53.9012 340.534 50 345.834L97.2424 365Z" fill="#2F3676"/>
<path fill-rule="evenodd" clip-rule="evenodd" d="M194.967 346.477C187.819 336.051 161.821 300.974 147.661 286.461C143.592 282.291 139.621 278.288 135.866 274.557C124.704 263.47 102.476 282.106 113.618 292.205C141.365 317.355 181.849 351.307 185.231 354.334C189.972 358.577 199.459 353.029 194.967 346.477Z" fill="#915B3C"/>
<path fill-rule="evenodd" clip-rule="evenodd" d="M190.337 342.184C191.03 341.24 192.371 341.016 193.267 341.77C194.902 343.145 197.253 345.263 198.102 346.733C199.454 349.075 201.268 354.02 201.268 354.02C198.551 355.589 152.423 382.221 152.423 382.221C152.423 382.221 146.885 377.026 150.697 374.156C154.51 371.285 156.989 369.314 156.989 369.314L173.849 346.086C174.18 345.63 174.822 345.537 175.268 345.881L178.771 348.578C178.771 348.578 183.592 348.158 185.966 346.787C187.412 345.952 189.177 343.767 190.337 342.184Z" fill="#E4E4E4"/>
<path fill-rule="evenodd" clip-rule="evenodd" d="M62.5505 367.283C63.6222 366.812 64.8958 367.289 65.295 368.39C66.0231 370.397 67.0001 373.408 67.0001 375.105C67.0001 377.81 66.0989 382.999 66.0989 382.999C62.9609 382.999 9.69701 382.999 9.69701 382.999C9.69701 382.999 7.49848 375.731 12.2353 375.151C16.972 374.572 20.1051 374.105 20.1051 374.105L46.3201 362.418C46.8347 362.188 47.4371 362.429 47.6518 362.95L49.3369 367.038C49.3369 367.038 53.7219 369.084 56.4634 369.084C58.1324 369.084 60.7544 368.073 62.5505 367.283Z" fill="#E4E4E4"/>
<path fill-rule="evenodd" clip-rule="evenodd" d="M147.138 277.25C147.138 277.25 192.883 269.798 208.42 267.058C237.943 261.852 246.552 245.965 241.462 211.302H187.066C176.268 214.42 96.833 249.872 96.833 249.872C87.305 254.602 89.0794 268.548 90.821 273.142C90.9275 273.423 139.008 355.713 139.008 355.713L183.506 327.366L147.054 280.59C147.054 280.59 145.61 277.682 147.138 277.25Z" fill="#5C63AB"/>
<path fill-rule="evenodd" clip-rule="evenodd" d="M111.321 221.634L143.219 198.21L150.27 215.641L118.683 228.74C109.749 239.234 104.754 243.609 103.696 241.864C102.805 240.393 103.502 239.016 104.144 237.747C104.644 236.759 105.11 235.837 104.767 234.988C103.982 233.048 97.9814 233.253 92.295 233.69C86.6085 234.127 88.2657 231.597 89.6368 230.347C95.4414 226.873 102.669 223.969 111.321 221.634ZM278.602 262.907C275.672 256.962 265.692 199.019 265.692 199.019L244.795 199.101C244.795 199.101 264.149 261.582 265.692 265.405C267.696 270.371 264.292 277.586 261.984 282.479C261.627 283.236 261.296 283.937 261.015 284.566C264.218 285.999 265.757 284.267 267.379 282.441C269.21 280.378 271.149 278.195 275.712 280.318C277.475 281.139 279.143 282.108 280.773 283.056C286.403 286.328 291.575 289.335 298.611 284.993C299.726 284.305 300.949 281.714 297.995 279.689C290.638 274.643 280.035 265.814 278.602 262.907Z" fill="#915B3C"/>
<path fill-rule="evenodd" clip-rule="evenodd" d="M206.305 111.332L197.658 109.849C165.575 137.564 152.397 190.809 113.071 219.015L122.536 230.748C190.76 222.301 207.67 157.355 206.305 111.332Z" fill="#02A9A8"/>
<path fill-rule="evenodd" clip-rule="evenodd" d="M244.001 219.999C244.001 219.999 191.993 219.999 167.49 219.999C163.993 219.999 164.652 214.951 165.158 212.403C170.99 183.003 193.76 151.311 193.76 109.46L215.829 105.999C234.084 135.357 240.396 171.504 244.001 219.999Z" fill="#DDE3E9"/>
<path fill-rule="evenodd" clip-rule="evenodd" d="M252.604 240.999C256.043 249.258 259.415 256.464 262.592 261.999H279.001C280.766 204.918 259.156 160.996 241.069 134.512C245.085 134.225 248.71 132.545 251.001 128.41C259.067 113.855 256.154 105.841 247.534 103.207C242.793 101.759 238.335 102.748 232.999 103.931C228.632 104.899 223.676 105.998 217.497 105.999C217.495 105.999 217.493 105.999 217.491 105.999C216.892 105.999 216.347 106.039 215.852 106.116L208.529 106.534C208.529 106.534 178.796 207.304 192.129 240.999H252.604Z" fill="#00AEAD"/>
<path fill-rule="evenodd" clip-rule="evenodd" d="M252.603 240.999C248.091 230.163 243.465 217.515 239.013 204.453C237.355 218.838 234.595 233.285 230 240.999H252.603Z" fill="black" fill-opacity="0.1"/>
</g>
</g>
<defs>
<clipPath id="clip0_92_104">
<rect width="380" height="400" fill="white"/>
</clipPath>
</defs>
</svg>
